<?xml version="1.0" encoding="utf-8"?>
<!-- Generator: Adobe Illustrator 26.2.1, SVG Export Plug-In . SVG Version: 6.00 Build 0)  -->
<svg version="1.1" id="레이어_1" xmlns="http://www.w3.org/2000/svg" xmlns:xlink="http://www.w3.org/1999/xlink" x="0px"
	 y="0px" viewBox="0 0 200 200" style="enable-background:new 0 0 200 200;" xml:space="preserve">
<style type="text/css">
	.st0{fill:#FFFFFF;}
	.st1{fill:#EB6617;}
	.st2{fill:#3FA94D;}
</style>
<g>
	<path class="st0" d="M0.1,0.1c65.3,0,130.5,0,195.8-0.1c3.4,0,4.1,0.7,4.1,4.1c-0.1,63.9-0.1,127.9,0,191.8c0,3.4-0.7,4.1-4.1,4.1
		C132,199.9,68,199.9,4.1,200c-3.4,0-4.1-0.7-4.1-4.1C0.1,130.7,0.1,65.4,0.1,0.1z"/>
	<path class="st1" d="M50.9,114.3C50.3,89.9,73.3,66,103.1,67c28.7,1,51,26.3,48.1,54.6c-1.8,17.4-11.5,30.3-24.2,41.3
		c-6.7,5.7-14,10.6-21.8,14.6c-2.3,1.2-4.5,2-7.1,0.6c-17.9-9.5-33.6-21.2-42.7-40C52.2,131.4,50.8,124.4,50.9,114.3z"/>
	<path class="st2" d="M87.3,44.2c-2.6-7.1-2.2-13.3,3.4-18.5c4.7-4.3,12.1-5.3,18-2.2c5.6,3,9,10.2,7.2,16.5c-1,3.5-0.4,4.2,3.2,3.9
		c5.7-0.5,10,3.3,10,8.5c0.1,5-3.7,8.4-9.4,8.7c-5.2,0.3-10.1-1.4-15.2-1.6c-7-0.3-13.8,1-20.7,1.6c-4.3,0.4-7.9-0.7-9.8-5
		c-1.4-3.1-1.5-6.1,0.8-8.8c3-3.5,6.5-4.9,11-3C86.1,44.5,86.4,44.3,87.3,44.2z"/>
	<path class="st0" d="M120.1,117c-0.1,10.3-8.8,19.1-18.9,19.1c-10.4,0-19.4-9-19.4-19.3c0-10.2,8.8-18.9,19.1-19
		C111.5,97.7,120.2,106.4,120.1,117z"/>
</g>
</svg>
