<?xml version="1.0" encoding="utf-8"?>
<!-- Generator: Adobe Illustrator 26.2.1, SVG Export Plug-In . SVG Version: 6.00 Build 0)  -->
<svg version="1.1" id="레이어_1" xmlns="http://www.w3.org/2000/svg" xmlns:xlink="http://www.w3.org/1999/xlink" x="0px"
	 y="0px" viewBox="0 0 200 200" style="enable-background:new 0 0 200 200;" xml:space="preserve">
<style type="text/css">
	.st0{fill:#CA191D;}
	.st1{fill:#FFFFFF;}
</style>
<g>
	<path class="st0" d="M200,200c-66.6,0-133.3,0-200,0c0-2.1,0-4.3,0-6.4C0,129.8,0,66,0,2.2C0,0.8-0.2,0,1.9,0
		C67.6,0.1,133.3,0.1,199,0.1c0.3,0,0.6,0,0.9,0C200,66.7,200,133.4,200,200z"/>
	<path class="st1" d="M131.8,94.1c4.5,0,9,0,13.5,0c0.9,0,2.1-0.5,2.5,0.5c0.6,1.2-0.8,1.7-1.4,2.4c-9.8,10.6-19.7,21.2-29.6,31.8
		c-12.4,13.3-24.9,26.7-37.3,40c-0.5,0.6-1,1.7-1.9,1.4c-1.1-0.4-0.5-1.6-0.4-2.5c2.3-19.2,4.7-38.3,7.1-57.5c0.5-4,0.5-4-3.6-4
		c-8.6,0-17.2,0-25.7,0c-0.3,0-0.7,0-1,0c-0.7-0.1-1.6,0.3-2-0.6c-0.3-0.8,0.5-1.2,0.9-1.6c2.2-2.5,4.5-4.9,6.8-7.3
		C78.2,77,96.6,57.2,115,37.5c2-2.2,4.1-4.4,6.2-6.5c0.4-0.4,0.7-1.1,1.4-0.7c0.7,0.3,0.4,1,0.3,1.6c-0.7,5.8-1.4,11.6-2.1,17.3
		c-1.7,14-3.5,27.9-5.2,41.9c-0.1,0.5-0.1,1-0.2,1.5c-0.2,1.2,0.1,1.6,1.4,1.6c3.8-0.1,7.7,0,11.5,0
		C129.5,94.1,130.7,94.1,131.8,94.1C131.8,94.1,131.8,94.1,131.8,94.1z"/>
</g>
</svg>
