<?xml version="1.0" encoding="utf-8"?>
<!-- Generator: Adobe Illustrator 26.2.1, SVG Export Plug-In . SVG Version: 6.00 Build 0)  -->
<svg version="1.1" id="레이어_1" xmlns="http://www.w3.org/2000/svg" xmlns:xlink="http://www.w3.org/1999/xlink" x="0px"
	 y="0px" viewBox="0 0 200 200" style="enable-background:new 0 0 200 200;" xml:space="preserve">
<style type="text/css">
	.st0{fill:#141313;}
	.st1{fill:#46B35B;}
</style>
<g>
	<path class="st0" d="M0,200C0,133.4,0,66.7,0,0c66.6,0,133.3,0,200,0c0,66.6,0,133.3,0,200C133.4,200,66.7,200,0,200z"/>
	<path class="st1" d="M46.7,88.3c12.1-0.1,24.2-0.1,36.2-0.2c4.1,0,8.3,0,13,0c0,15.9,0,31.5,0,46.8c0.8,0.4,1,0.7,1.2,0.7
		c8.9,0.3,7.8,0.6,7.8-7.2c0-23.9,0-47.8,0-71.7c0-2.1-0.2-4.2,0.6-6.2c2.2-5.6,5.8-9.2,13.3-9.2c11.1,0,22.2,0,33.3,0
		c0.5,0,1.1,0.1,1.6,0.2c1,0.8,0.8,1.8,0.8,2.7c0,30.1,0.1,60.3,0,90.4c0,8.5-4.6,13.8-12.8,15.5c-0.3,0-0.5,0.1-0.8,0.1
		c-23.7,0.2-47.3,0.2-71,0c-0.3,0-0.5-0.1-0.8-0.1c-12.8-1.7-21.8-10.6-23.5-23.5c0-0.3-0.1-0.5-0.1-0.8
		c-0.3-11.2-0.1-22.5-0.1-33.7C45.5,90.7,45.6,89.3,46.7,88.3z"/>
</g>
</svg>
